# xmcd
#
# Track frame offsets:
#	150
#	14660
#	28261
#	44116
#	56673
#	74277
#	88788
#	103555
#	116846
#	128159
#	148344
#	163992
#
# Disc length: 2361 seconds
#
# Revision: 1
# Processed by: cddbd v1.4PL0 Copyright (c) Steve Scherf et al.
# Submitted via: audiograbber 1.81.02
#
DISCID=bd09370c
DTITLE=Shea and Kearns - Trouble and Me
DYEAR=2001
DGENRE=Blue Grass
TTITLE0=Carolina CA.
TTITLE1=Rachel
TTITLE2=Loafer's Glory
TTITLE3=San Bernadino Waltz
TTITLE4=Cane on the Brazos
TTITLE5=Parish Road
TTITLE6=Sail Away Ladies
TTITLE7=Trouble and Me
TTITLE8=Ain't It Almost Like Oldtimes
TTITLE9=Black Snake Moan
TTITLE10=Let My Worries Run Free
TTITLE11=Byron's Iron Backers Acre
EXTD=
EXTT0=
EXTT1=
EXTT2=
EXTT3=
EXTT4=
EXTT5=
EXTT6=
EXTT7=
EXTT8=
EXTT9=
EXTT10=
EXTT11=
PLAYORDER=
